ISO-10303-21;
HEADER;
/* Generated by software containing ST-Developer
 * from STEP Tools, Inc. (www.steptools.com) 
 */

FILE_DESCRIPTION(
/* description */ (''),
/* implementation_level */ '2;1');

FILE_NAME(
/* name */ 'flywheel.step',
/* time_stamp */ '2026-07-31T22:03:13+05:30',
/* author */ (''),
/* organization */ (''),
/* preprocessor_version */ 'ST-DEVELOPER v20.1',
/* originating_system */ 'Autodesk Translation Framework v15.8.0.0',
/* authorisation */ '');

FILE_SCHEMA (('AUTOMOTIVE_DESIGN { 1 0 10303 214 3 1 1 }'));
ENDSEC;

DATA;
#10=MECHANICAL_DESIGN_GEOMETRIC_PRESENTATION_REPRESENTATION('',(#15,#16),
#1169);
#11=SHAPE_REPRESENTATION_RELATIONSHIP('SRR','None',#1176,#12);
#12=ADVANCED_BREP_SHAPE_REPRESENTATION('',(#17,#18),#1168);
#13=TOROIDAL_SURFACE('',#755,17.,0.5);
#14=TOROIDAL_SURFACE('',#764,17.,0.5);
#15=STYLED_ITEM('',(#1186),#17);
#16=STYLED_ITEM('',(#1186),#18);
#17=MANIFOLD_SOLID_BREP('Body1',#681);
#18=MANIFOLD_SOLID_BREP('Body3',#682);
#19=FACE_BOUND('',#116,.T.);
#20=FACE_BOUND('',#118,.T.);
#21=FACE_BOUND('',#119,.T.);
#22=FACE_BOUND('',#120,.T.);
#23=FACE_BOUND('',#121,.T.);
#24=FACE_BOUND('',#122,.T.);
#25=FACE_BOUND('',#123,.T.);
#26=FACE_BOUND('',#125,.T.);
#27=FACE_BOUND('',#126,.T.);
#28=FACE_BOUND('',#127,.T.);
#29=FACE_BOUND('',#128,.T.);
#30=FACE_BOUND('',#129,.T.);
#31=FACE_BOUND('',#130,.T.);
#32=FACE_BOUND('',#135,.T.);
#33=FACE_BOUND('',#139,.T.);
#34=FACE_BOUND('',#142,.T.);
#35=PLANE('',#702);
#36=PLANE('',#706);
#37=PLANE('',#710);
#38=PLANE('',#714);
#39=PLANE('',#718);
#40=PLANE('',#722);
#41=PLANE('',#723);
#42=PLANE('',#727);
#43=PLANE('',#734);
#44=PLANE('',#738);
#45=PLANE('',#739);
#46=PLANE('',#740);
#47=PLANE('',#741);
#48=PLANE('',#742);
#49=PLANE('',#745);
#50=PLANE('',#747);
#51=PLANE('',#754);
#52=PLANE('',#762);
#53=PLANE('',#767);
#54=FACE_OUTER_BOUND('',#91,.T.);
#55=FACE_OUTER_BOUND('',#92,.T.);
#56=FACE_OUTER_BOUND('',#93,.T.);
#57=FACE_OUTER_BOUND('',#94,.T.);
#58=FACE_OUTER_BOUND('',#95,.T.);
#59=FACE_OUTER_BOUND('',#96,.T.);
#60=FACE_OUTER_BOUND('',#97,.T.);
#61=FACE_OUTER_BOUND('',#98,.T.);
#62=FACE_OUTER_BOUND('',#99,.T.);
#63=FACE_OUTER_BOUND('',#100,.T.);
#64=FACE_OUTER_BOUND('',#101,.T.);
#65=FACE_OUTER_BOUND('',#102,.T.);
#66=FACE_OUTER_BOUND('',#103,.T.);
#67=FACE_OUTER_BOUND('',#104,.T.);
#68=FACE_OUTER_BOUND('',#105,.T.);
#69=FACE_OUTER_BOUND('',#106,.T.);
#70=FACE_OUTER_BOUND('',#107,.T.);
#71=FACE_OUTER_BOUND('',#108,.T.);
#72=FACE_OUTER_BOUND('',#109,.T.);
#73=FACE_OUTER_BOUND('',#110,.T.);
#74=FACE_OUTER_BOUND('',#111,.T.);
#75=FACE_OUTER_BOUND('',#112,.T.);
#76=FACE_OUTER_BOUND('',#113,.T.);
#77=FACE_OUTER_BOUND('',#114,.T.);
#78=FACE_OUTER_BOUND('',#115,.T.);
#79=FACE_OUTER_BOUND('',#117,.T.);
#80=FACE_OUTER_BOUND('',#124,.T.);
#81=FACE_OUTER_BOUND('',#131,.T.);
#82=FACE_OUTER_BOUND('',#132,.T.);
#83=FACE_OUTER_BOUND('',#133,.T.);
#84=FACE_OUTER_BOUND('',#134,.T.);
#85=FACE_OUTER_BOUND('',#136,.T.);
#86=FACE_OUTER_BOUND('',#137,.T.);
#87=FACE_OUTER_BOUND('',#138,.T.);
#88=FACE_OUTER_BOUND('',#140,.T.);
#89=FACE_OUTER_BOUND('',#141,.T.);
#90=FACE_OUTER_BOUND('',#143,.T.);
#91=EDGE_LOOP('',(#444,#445,#446,#447));
#92=EDGE_LOOP('',(#448,#449,#450,#451));
#93=EDGE_LOOP('',(#452,#453,#454,#455));
#94=EDGE_LOOP('',(#456,#457,#458,#459));
#95=EDGE_LOOP('',(#460,#461,#462,#463));
#96=EDGE_LOOP('',(#464,#465,#466,#467));
#97=EDGE_LOOP('',(#468,#469,#470,#471));
#98=EDGE_LOOP('',(#472,#473,#474,#475));
#99=EDGE_LOOP('',(#476,#477,#478,#479));
#100=EDGE_LOOP('',(#480,#481,#482,#483));
#101=EDGE_LOOP('',(#484,#485,#486,#487));
#102=EDGE_LOOP('',(#488,#489,#490,#491));
#103=EDGE_LOOP('',(#492,#493,#494,#495));
#104=EDGE_LOOP('',(#496,#497,#498,#499));
#105=EDGE_LOOP('',(#500,#501,#502,#503));
#106=EDGE_LOOP('',(#504,#505,#506,#507));
#107=EDGE_LOOP('',(#508,#509,#510,#511));
#108=EDGE_LOOP('',(#512,#513,#514,#515));
#109=EDGE_LOOP('',(#516,#517,#518,#519));
#110=EDGE_LOOP('',(#520,#521,#522,#523));
#111=EDGE_LOOP('',(#524,#525,#526,#527));
#112=EDGE_LOOP('',(#528,#529,#530,#531));
#113=EDGE_LOOP('',(#532,#533,#534,#535));
#114=EDGE_LOOP('',(#536,#537,#538,#539));
#115=EDGE_LOOP('',(#540));
#116=EDGE_LOOP('',(#541,#542,#543,#544));
#117=EDGE_LOOP('',(#545));
#118=EDGE_LOOP('',(#546));
#119=EDGE_LOOP('',(#547,#548,#549,#550));
#120=EDGE_LOOP('',(#551,#552,#553,#554));
#121=EDGE_LOOP('',(#555,#556,#557,#558));
#122=EDGE_LOOP('',(#559,#560,#561,#562));
#123=EDGE_LOOP('',(#563,#564,#565,#566));
#124=EDGE_LOOP('',(#567));
#125=EDGE_LOOP('',(#568));
#126=EDGE_LOOP('',(#569,#570,#571,#572));
#127=EDGE_LOOP('',(#573,#574,#575,#576));
#128=EDGE_LOOP('',(#577,#578,#579,#580));
#129=EDGE_LOOP('',(#581,#582,#583,#584));
#130=EDGE_LOOP('',(#585,#586,#587,#588));
#131=EDGE_LOOP('',(#589,#590,#591,#592));
#132=EDGE_LOOP('',(#593,#594,#595,#596));
#133=EDGE_LOOP('',(#597,#598,#599,#600));
#134=EDGE_LOOP('',(#601));
#135=EDGE_LOOP('',(#602,#603,#604,#605));
#136=EDGE_LOOP('',(#606,#607,#608,#609,#610));
#137=EDGE_LOOP('',(#611,#612,#613,#614,#615));
#138=EDGE_LOOP('',(#616));
#139=EDGE_LOOP('',(#617));
#140=EDGE_LOOP('',(#618,#619,#620,#621));
#141=EDGE_LOOP('',(#622));
#142=EDGE_LOOP('',(#623));
#143=EDGE_LOOP('',(#624,#625,#626,#627));
#144=LINE('',#980,#199);
#145=LINE('',#987,#200);
#146=LINE('',#990,#201);
#147=LINE('',#993,#202);
#148=LINE('',#995,#203);
#149=LINE('',#996,#204);
#150=LINE('',#1001,#205);
#151=LINE('',#1004,#206);
#152=LINE('',#1005,#207);
#153=LINE('',#1011,#208);
#154=LINE('',#1014,#209);
#155=LINE('',#1017,#210);
#156=LINE('',#1019,#211);
#157=LINE('',#1020,#212);
#158=LINE('',#1025,#213);
#159=LINE('',#1028,#214);
#160=LINE('',#1029,#215);
#161=LINE('',#1035,#216);
#162=LINE('',#1038,#217);
#163=LINE('',#1041,#218);
#164=LINE('',#1043,#219);
#165=LINE('',#1044,#220);
#166=LINE('',#1049,#221);
#167=LINE('',#1052,#222);
#168=LINE('',#1053,#223);
#169=LINE('',#1057,#224);
#170=LINE('',#1059,#225);
#171=LINE('',#1061,#226);
#172=LINE('',#1062,#227);
#173=LINE('',#1067,#228);
#174=LINE('',#1071,#229);
#175=LINE('',#1073,#230);
#176=LINE('',#1074,#231);
#177=LINE('',#1083,#232);
#178=LINE('',#1086,#233);
#179=LINE('',#1089,#234);
#180=LINE('',#1091,#235);
#181=LINE('',#1092,#236);
#182=LINE('',#1097,#237);
#183=LINE('',#1100,#238);
#184=LINE('',#1101,#239);
#185=LINE('',#1105,#240);
#186=LINE('',#1107,#241);
#187=LINE('',#1109,#242);
#188=LINE('',#1110,#243);
#189=LINE('',#1113,#244);
#190=LINE('',#1115,#245);
#191=LINE('',#1116,#246);
#192=LINE('',#1119,#247);
#193=LINE('',#1121,#248);
#194=LINE('',#1122,#249);
#195=LINE('',#1136,#250);
#196=LINE('',#1140,#251);
#197=LINE('',#1153,#252);
#198=LINE('',#1165,#253);
#199=VECTOR('',#776,15.);
#200=VECTOR('',#783,10.);
#201=VECTOR('',#786,10.);
#202=VECTOR('',#789,10.);
#203=VECTOR('',#790,10.);
#204=VECTOR('',#791,10.);
#205=VECTOR('',#796,10.);
#206=VECTOR('',#801,10.);
#207=VECTOR('',#802,10.);
#208=VECTOR('',#807,10.);
#209=VECTOR('',#810,10.);
#210=VECTOR('',#813,10.);
#211=VECTOR('',#814,10.);
#212=VECTOR('',#815,10.);
#213=VECTOR('',#820,10.);
#214=VECTOR('',#825,10.);
#215=VECTOR('',#826,10.);
#216=VECTOR('',#831,10.);
#217=VECTOR('',#834,10.);
#218=VECTOR('',#837,10.);
#219=VECTOR('',#838,10.);
#220=VECTOR('',#839,10.);
#221=VECTOR('',#844,10.);
#222=VECTOR('',#849,10.);
#223=VECTOR('',#850,10.);
#224=VECTOR('',#853,10.);
#225=VECTOR('',#854,10.);
#226=VECTOR('',#855,10.);
#227=VECTOR('',#856,10.);
#228=VECTOR('',#861,10.);
#229=VECTOR('',#866,10.);
#230=VECTOR('',#867,10.);
#231=VECTOR('',#868,10.);
#232=VECTOR('',#879,10.);
#233=VECTOR('',#882,10.);
#234=VECTOR('',#885,10.);
#235=VECTOR('',#886,10.);
#236=VECTOR('',#887,10.);
#237=VECTOR('',#892,10.);
#238=VECTOR('',#897,10.);
#239=VECTOR('',#898,10.);
#240=VECTOR('',#901,10.);
#241=VECTOR('',#902,10.);
#242=VECTOR('',#903,10.);
#243=VECTOR('',#904,10.);
#244=VECTOR('',#907,10.);
#245=VECTOR('',#908,10.);
#246=VECTOR('',#909,10.);
#247=VECTOR('',#912,10.);
#248=VECTOR('',#913,10.);
#249=VECTOR('',#914,10.);
#250=VECTOR('',#933,5.);
#251=VECTOR('',#940,5.);
#252=VECTOR('',#957,17.5);
#253=VECTOR('',#974,15.);
#254=CIRCLE('',#697,15.);
#255=CIRCLE('',#698,15.);
#256=CIRCLE('',#700,14.);
#257=CIRCLE('',#701,14.);
#258=CIRCLE('',#704,6.);
#259=CIRCLE('',#705,6.);
#260=CIRCLE('',#708,14.);
#261=CIRCLE('',#709,14.);
#262=CIRCLE('',#712,6.);
#263=CIRCLE('',#713,6.);
#264=CIRCLE('',#716,14.);
#265=CIRCLE('',#717,14.);
#266=CIRCLE('',#720,6.);
#267=CIRCLE('',#721,6.);
#268=CIRCLE('',#725,14.);
#269=CIRCLE('',#726,14.);
#270=CIRCLE('',#729,6.);
#271=CIRCLE('',#730,6.);
#272=CIRCLE('',#732,14.);
#273=CIRCLE('',#733,14.);
#274=CIRCLE('',#736,6.);
#275=CIRCLE('',#737,6.);
#276=CIRCLE('',#743,5.);
#277=CIRCLE('',#744,2.);
#278=CIRCLE('',#746,5.);
#279=CIRCLE('',#748,5.);
#280=CIRCLE('',#750,5.);
#281=CIRCLE('',#752,2.);
#282=CIRCLE('',#756,17.);
#283=CIRCLE('',#757,0.5);
#284=CIRCLE('',#758,17.5);
#285=CIRCLE('',#759,17.5);
#286=CIRCLE('',#761,17.5);
#287=CIRCLE('',#763,15.);
#288=CIRCLE('',#765,17.);
#289=CIRCLE('',#766,0.5);
#290=CIRCLE('',#768,15.);
#291=VERTEX_POINT('',#977);
#292=VERTEX_POINT('',#979);
#293=VERTEX_POINT('',#983);
#294=VERTEX_POINT('',#984);
#295=VERTEX_POINT('',#986);
#296=VERTEX_POINT('',#988);
#297=VERTEX_POINT('',#992);
#298=VERTEX_POINT('',#994);
#299=VERTEX_POINT('',#998);
#300=VERTEX_POINT('',#1000);
#301=VERTEX_POINT('',#1007);
#302=VERTEX_POINT('',#1008);
#303=VERTEX_POINT('',#1010);
#304=VERTEX_POINT('',#1012);
#305=VERTEX_POINT('',#1016);
#306=VERTEX_POINT('',#1018);
#307=VERTEX_POINT('',#1022);
#308=VERTEX_POINT('',#1024);
#309=VERTEX_POINT('',#1031);
#310=VERTEX_POINT('',#1032);
#311=VERTEX_POINT('',#1034);
#312=VERTEX_POINT('',#1036);
#313=VERTEX_POINT('',#1040);
#314=VERTEX_POINT('',#1042);
#315=VERTEX_POINT('',#1046);
#316=VERTEX_POINT('',#1048);
#317=VERTEX_POINT('',#1055);
#318=VERTEX_POINT('',#1056);
#319=VERTEX_POINT('',#1058);
#320=VERTEX_POINT('',#1060);
#321=VERTEX_POINT('',#1064);
#322=VERTEX_POINT('',#1066);
#323=VERTEX_POINT('',#1070);
#324=VERTEX_POINT('',#1072);
#325=VERTEX_POINT('',#1079);
#326=VERTEX_POINT('',#1080);
#327=VERTEX_POINT('',#1082);
#328=VERTEX_POINT('',#1084);
#329=VERTEX_POINT('',#1088);
#330=VERTEX_POINT('',#1090);
#331=VERTEX_POINT('',#1094);
#332=VERTEX_POINT('',#1096);
#333=VERTEX_POINT('',#1103);
#334=VERTEX_POINT('',#1104);
#335=VERTEX_POINT('',#1106);
#336=VERTEX_POINT('',#1108);
#337=VERTEX_POINT('',#1112);
#338=VERTEX_POINT('',#1114);
#339=VERTEX_POINT('',#1118);
#340=VERTEX_POINT('',#1120);
#341=VERTEX_POINT('',#1124);
#342=VERTEX_POINT('',#1128);
#343=VERTEX_POINT('',#1131);
#344=VERTEX_POINT('',#1134);
#345=VERTEX_POINT('',#1143);
#346=VERTEX_POINT('',#1145);
#347=VERTEX_POINT('',#1147);
#348=VERTEX_POINT('',#1151);
#349=VERTEX_POINT('',#1155);
#350=VERTEX_POINT('',#1158);
#351=VERTEX_POINT('',#1162);
#352=EDGE_CURVE('',#291,#291,#254,.T.);
#353=EDGE_CURVE('',#291,#292,#144,.T.);
#354=EDGE_CURVE('',#292,#292,#255,.T.);
#355=EDGE_CURVE('',#293,#294,#256,.T.);
#356=EDGE_CURVE('',#293,#295,#145,.T.);
#357=EDGE_CURVE('',#296,#295,#257,.T.);
#358=EDGE_CURVE('',#294,#296,#146,.T.);
#359=EDGE_CURVE('',#297,#293,#147,.T.);
#360=EDGE_CURVE('',#297,#298,#148,.T.);
#361=EDGE_CURVE('',#295,#298,#149,.T.);
#362=EDGE_CURVE('',#299,#297,#258,.T.);
#363=EDGE_CURVE('',#299,#300,#150,.T.);
#364=EDGE_CURVE('',#298,#300,#259,.T.);
#365=EDGE_CURVE('',#294,#299,#151,.T.);
#366=EDGE_CURVE('',#300,#296,#152,.T.);
#367=EDGE_CURVE('',#301,#302,#260,.T.);
#368=EDGE_CURVE('',#301,#303,#153,.T.);
#369=EDGE_CURVE('',#304,#303,#261,.T.);
#370=EDGE_CURVE('',#302,#304,#154,.T.);
#371=EDGE_CURVE('',#305,#301,#155,.T.);
#372=EDGE_CURVE('',#305,#306,#156,.T.);
#373=EDGE_CURVE('',#303,#306,#157,.T.);
#374=EDGE_CURVE('',#307,#305,#262,.T.);
#375=EDGE_CURVE('',#307,#308,#158,.T.);
#376=EDGE_CURVE('',#306,#308,#263,.T.);
#377=EDGE_CURVE('',#302,#307,#159,.T.);
#378=EDGE_CURVE('',#308,#304,#160,.T.);
#379=EDGE_CURVE('',#309,#310,#264,.T.);
#380=EDGE_CURVE('',#309,#311,#161,.T.);
#381=EDGE_CURVE('',#312,#311,#265,.T.);
#382=EDGE_CURVE('',#310,#312,#162,.T.);
#383=EDGE_CURVE('',#313,#309,#163,.T.);
#384=EDGE_CURVE('',#313,#314,#164,.T.);
#385=EDGE_CURVE('',#311,#314,#165,.T.);
#386=EDGE_CURVE('',#315,#313,#266,.T.);
#387=EDGE_CURVE('',#315,#316,#166,.T.);
#388=EDGE_CURVE('',#314,#316,#267,.T.);
#389=EDGE_CURVE('',#310,#315,#167,.T.);
#390=EDGE_CURVE('',#316,#312,#168,.T.);
#391=EDGE_CURVE('',#317,#318,#169,.T.);
#392=EDGE_CURVE('',#317,#319,#170,.T.);
#393=EDGE_CURVE('',#320,#319,#171,.T.);
#394=EDGE_CURVE('',#318,#320,#172,.T.);
#395=EDGE_CURVE('',#321,#317,#268,.T.);
#396=EDGE_CURVE('',#321,#322,#173,.T.);
#397=EDGE_CURVE('',#319,#322,#269,.T.);
#398=EDGE_CURVE('',#323,#321,#174,.T.);
#399=EDGE_CURVE('',#323,#324,#175,.T.);
#400=EDGE_CURVE('',#322,#324,#176,.T.);
#401=EDGE_CURVE('',#318,#323,#270,.T.);
#402=EDGE_CURVE('',#324,#320,#271,.T.);
#403=EDGE_CURVE('',#325,#326,#272,.T.);
#404=EDGE_CURVE('',#325,#327,#177,.T.);
#405=EDGE_CURVE('',#328,#327,#273,.T.);
#406=EDGE_CURVE('',#326,#328,#178,.T.);
#407=EDGE_CURVE('',#329,#325,#179,.T.);
#408=EDGE_CURVE('',#329,#330,#180,.T.);
#409=EDGE_CURVE('',#327,#330,#181,.T.);
#410=EDGE_CURVE('',#331,#329,#274,.T.);
#411=EDGE_CURVE('',#331,#332,#182,.T.);
#412=EDGE_CURVE('',#330,#332,#275,.T.);
#413=EDGE_CURVE('',#326,#331,#183,.T.);
#414=EDGE_CURVE('',#332,#328,#184,.T.);
#415=EDGE_CURVE('',#333,#334,#185,.T.);
#416=EDGE_CURVE('',#333,#335,#186,.T.);
#417=EDGE_CURVE('',#336,#335,#187,.T.);
#418=EDGE_CURVE('',#334,#336,#188,.T.);
#419=EDGE_CURVE('',#337,#333,#189,.T.);
#420=EDGE_CURVE('',#338,#337,#190,.T.);
#421=EDGE_CURVE('',#335,#338,#191,.T.);
#422=EDGE_CURVE('',#334,#339,#192,.T.);
#423=EDGE_CURVE('',#340,#336,#193,.T.);
#424=EDGE_CURVE('',#339,#340,#194,.T.);
#425=EDGE_CURVE('',#341,#341,#276,.T.);
#426=EDGE_CURVE('',#338,#340,#277,.T.);
#427=EDGE_CURVE('',#342,#342,#278,.T.);
#428=EDGE_CURVE('',#343,#343,#279,.T.);
#429=EDGE_CURVE('',#344,#344,#280,.T.);
#430=EDGE_CURVE('',#344,#343,#195,.T.);
#431=EDGE_CURVE('',#339,#337,#281,.T.);
#432=EDGE_CURVE('',#342,#341,#196,.T.);
#433=EDGE_CURVE('',#345,#345,#282,.T.);
#434=EDGE_CURVE('',#345,#346,#283,.T.);
#435=EDGE_CURVE('',#346,#347,#284,.T.);
#436=EDGE_CURVE('',#347,#346,#285,.T.);
#437=EDGE_CURVE('',#348,#348,#286,.T.);
#438=EDGE_CURVE('',#348,#347,#197,.T.);
#439=EDGE_CURVE('',#349,#349,#287,.T.);
#440=EDGE_CURVE('',#350,#350,#288,.T.);
#441=EDGE_CURVE('',#350,#348,#289,.T.);
#442=EDGE_CURVE('',#351,#351,#290,.T.);
#443=EDGE_CURVE('',#351,#349,#198,.T.);
#444=ORIENTED_EDGE('',*,*,#352,.T.);
#445=ORIENTED_EDGE('',*,*,#353,.T.);
#446=ORIENTED_EDGE('',*,*,#354,.T.);
#447=ORIENTED_EDGE('',*,*,#353,.F.);
#448=ORIENTED_EDGE('',*,*,#355,.F.);
#449=ORIENTED_EDGE('',*,*,#356,.T.);
#450=ORIENTED_EDGE('',*,*,#357,.F.);
#451=ORIENTED_EDGE('',*,*,#358,.F.);
#452=ORIENTED_EDGE('',*,*,#359,.F.);
#453=ORIENTED_EDGE('',*,*,#360,.T.);
#454=ORIENTED_EDGE('',*,*,#361,.F.);
#455=ORIENTED_EDGE('',*,*,#356,.F.);
#456=ORIENTED_EDGE('',*,*,#362,.F.);
#457=ORIENTED_EDGE('',*,*,#363,.T.);
#458=ORIENTED_EDGE('',*,*,#364,.F.);
#459=ORIENTED_EDGE('',*,*,#360,.F.);
#460=ORIENTED_EDGE('',*,*,#365,.F.);
#461=ORIENTED_EDGE('',*,*,#358,.T.);
#462=ORIENTED_EDGE('',*,*,#366,.F.);
#463=ORIENTED_EDGE('',*,*,#363,.F.);
#464=ORIENTED_EDGE('',*,*,#367,.F.);
#465=ORIENTED_EDGE('',*,*,#368,.T.);
#466=ORIENTED_EDGE('',*,*,#369,.F.);
#467=ORIENTED_EDGE('',*,*,#370,.F.);
#468=ORIENTED_EDGE('',*,*,#371,.F.);
#469=ORIENTED_EDGE('',*,*,#372,.T.);
#470=ORIENTED_EDGE('',*,*,#373,.F.);
#471=ORIENTED_EDGE('',*,*,#368,.F.);
#472=ORIENTED_EDGE('',*,*,#374,.F.);
#473=ORIENTED_EDGE('',*,*,#375,.T.);
#474=ORIENTED_EDGE('',*,*,#376,.F.);
#475=ORIENTED_EDGE('',*,*,#372,.F.);
#476=ORIENTED_EDGE('',*,*,#377,.F.);
#477=ORIENTED_EDGE('',*,*,#370,.T.);
#478=ORIENTED_EDGE('',*,*,#378,.F.);
#479=ORIENTED_EDGE('',*,*,#375,.F.);
#480=ORIENTED_EDGE('',*,*,#379,.F.);
#481=ORIENTED_EDGE('',*,*,#380,.T.);
#482=ORIENTED_EDGE('',*,*,#381,.F.);
#483=ORIENTED_EDGE('',*,*,#382,.F.);
#484=ORIENTED_EDGE('',*,*,#383,.F.);
#485=ORIENTED_EDGE('',*,*,#384,.T.);
#486=ORIENTED_EDGE('',*,*,#385,.F.);
#487=ORIENTED_EDGE('',*,*,#380,.F.);
#488=ORIENTED_EDGE('',*,*,#386,.F.);
#489=ORIENTED_EDGE('',*,*,#387,.T.);
#490=ORIENTED_EDGE('',*,*,#388,.F.);
#491=ORIENTED_EDGE('',*,*,#384,.F.);
#492=ORIENTED_EDGE('',*,*,#389,.F.);
#493=ORIENTED_EDGE('',*,*,#382,.T.);
#494=ORIENTED_EDGE('',*,*,#390,.F.);
#495=ORIENTED_EDGE('',*,*,#387,.F.);
#496=ORIENTED_EDGE('',*,*,#391,.F.);
#497=ORIENTED_EDGE('',*,*,#392,.T.);
#498=ORIENTED_EDGE('',*,*,#393,.F.);
#499=ORIENTED_EDGE('',*,*,#394,.F.);
#500=ORIENTED_EDGE('',*,*,#395,.F.);
#501=ORIENTED_EDGE('',*,*,#396,.T.);
#502=ORIENTED_EDGE('',*,*,#397,.F.);
#503=ORIENTED_EDGE('',*,*,#392,.F.);
#504=ORIENTED_EDGE('',*,*,#398,.F.);
#505=ORIENTED_EDGE('',*,*,#399,.T.);
#506=ORIENTED_EDGE('',*,*,#400,.F.);
#507=ORIENTED_EDGE('',*,*,#396,.F.);
#508=ORIENTED_EDGE('',*,*,#401,.F.);
#509=ORIENTED_EDGE('',*,*,#394,.T.);
#510=ORIENTED_EDGE('',*,*,#402,.F.);
#511=ORIENTED_EDGE('',*,*,#399,.F.);
#512=ORIENTED_EDGE('',*,*,#403,.F.);
#513=ORIENTED_EDGE('',*,*,#404,.T.);
#514=ORIENTED_EDGE('',*,*,#405,.F.);
#515=ORIENTED_EDGE('',*,*,#406,.F.);
#516=ORIENTED_EDGE('',*,*,#407,.F.);
#517=ORIENTED_EDGE('',*,*,#408,.T.);
#518=ORIENTED_EDGE('',*,*,#409,.F.);
#519=ORIENTED_EDGE('',*,*,#404,.F.);
#520=ORIENTED_EDGE('',*,*,#410,.F.);
#521=ORIENTED_EDGE('',*,*,#411,.T.);
#522=ORIENTED_EDGE('',*,*,#412,.F.);
#523=ORIENTED_EDGE('',*,*,#408,.F.);
#524=ORIENTED_EDGE('',*,*,#413,.F.);
#525=ORIENTED_EDGE('',*,*,#406,.T.);
#526=ORIENTED_EDGE('',*,*,#414,.F.);
#527=ORIENTED_EDGE('',*,*,#411,.F.);
#528=ORIENTED_EDGE('',*,*,#415,.F.);
#529=ORIENTED_EDGE('',*,*,#416,.T.);
#530=ORIENTED_EDGE('',*,*,#417,.F.);
#531=ORIENTED_EDGE('',*,*,#418,.F.);
#532=ORIENTED_EDGE('',*,*,#419,.F.);
#533=ORIENTED_EDGE('',*,*,#420,.F.);
#534=ORIENTED_EDGE('',*,*,#421,.F.);
#535=ORIENTED_EDGE('',*,*,#416,.F.);
#536=ORIENTED_EDGE('',*,*,#422,.F.);
#537=ORIENTED_EDGE('',*,*,#418,.T.);
#538=ORIENTED_EDGE('',*,*,#423,.F.);
#539=ORIENTED_EDGE('',*,*,#424,.F.);
#540=ORIENTED_EDGE('',*,*,#425,.T.);
#541=ORIENTED_EDGE('',*,*,#423,.T.);
#542=ORIENTED_EDGE('',*,*,#417,.T.);
#543=ORIENTED_EDGE('',*,*,#421,.T.);
#544=ORIENTED_EDGE('',*,*,#426,.T.);
#545=ORIENTED_EDGE('',*,*,#354,.F.);
#546=ORIENTED_EDGE('',*,*,#427,.F.);
#547=ORIENTED_EDGE('',*,*,#405,.T.);
#548=ORIENTED_EDGE('',*,*,#409,.T.);
#549=ORIENTED_EDGE('',*,*,#412,.T.);
#550=ORIENTED_EDGE('',*,*,#414,.T.);
#551=ORIENTED_EDGE('',*,*,#393,.T.);
#552=ORIENTED_EDGE('',*,*,#397,.T.);
#553=ORIENTED_EDGE('',*,*,#400,.T.);
#554=ORIENTED_EDGE('',*,*,#402,.T.);
#555=ORIENTED_EDGE('',*,*,#381,.T.);
#556=ORIENTED_EDGE('',*,*,#385,.T.);
#557=ORIENTED_EDGE('',*,*,#388,.T.);
#558=ORIENTED_EDGE('',*,*,#390,.T.);
#559=ORIENTED_EDGE('',*,*,#369,.T.);
#560=ORIENTED_EDGE('',*,*,#373,.T.);
#561=ORIENTED_EDGE('',*,*,#376,.T.);
#562=ORIENTED_EDGE('',*,*,#378,.T.);
#563=ORIENTED_EDGE('',*,*,#357,.T.);
#564=ORIENTED_EDGE('',*,*,#361,.T.);
#565=ORIENTED_EDGE('',*,*,#364,.T.);
#566=ORIENTED_EDGE('',*,*,#366,.T.);
#567=ORIENTED_EDGE('',*,*,#352,.F.);
#568=ORIENTED_EDGE('',*,*,#428,.F.);
#569=ORIENTED_EDGE('',*,*,#403,.T.);
#570=ORIENTED_EDGE('',*,*,#413,.T.);
#571=ORIENTED_EDGE('',*,*,#410,.T.);
#572=ORIENTED_EDGE('',*,*,#407,.T.);
#573=ORIENTED_EDGE('',*,*,#391,.T.);
#574=ORIENTED_EDGE('',*,*,#401,.T.);
#575=ORIENTED_EDGE('',*,*,#398,.T.);
#576=ORIENTED_EDGE('',*,*,#395,.T.);
#577=ORIENTED_EDGE('',*,*,#379,.T.);
#578=ORIENTED_EDGE('',*,*,#389,.T.);
#579=ORIENTED_EDGE('',*,*,#386,.T.);
#580=ORIENTED_EDGE('',*,*,#383,.T.);
#581=ORIENTED_EDGE('',*,*,#367,.T.);
#582=ORIENTED_EDGE('',*,*,#377,.T.);
#583=ORIENTED_EDGE('',*,*,#374,.T.);
#584=ORIENTED_EDGE('',*,*,#371,.T.);
#585=ORIENTED_EDGE('',*,*,#355,.T.);
#586=ORIENTED_EDGE('',*,*,#365,.T.);
#587=ORIENTED_EDGE('',*,*,#362,.T.);
#588=ORIENTED_EDGE('',*,*,#359,.T.);
#589=ORIENTED_EDGE('',*,*,#429,.F.);
#590=ORIENTED_EDGE('',*,*,#430,.T.);
#591=ORIENTED_EDGE('',*,*,#428,.T.);
#592=ORIENTED_EDGE('',*,*,#430,.F.);
#593=ORIENTED_EDGE('',*,*,#424,.T.);
#594=ORIENTED_EDGE('',*,*,#426,.F.);
#595=ORIENTED_EDGE('',*,*,#420,.T.);
#596=ORIENTED_EDGE('',*,*,#431,.F.);
#597=ORIENTED_EDGE('',*,*,#427,.T.);
#598=ORIENTED_EDGE('',*,*,#432,.T.);
#599=ORIENTED_EDGE('',*,*,#425,.F.);
#600=ORIENTED_EDGE('',*,*,#432,.F.);
#601=ORIENTED_EDGE('',*,*,#429,.T.);
#602=ORIENTED_EDGE('',*,*,#422,.T.);
#603=ORIENTED_EDGE('',*,*,#431,.T.);
#604=ORIENTED_EDGE('',*,*,#419,.T.);
#605=ORIENTED_EDGE('',*,*,#415,.T.);
#606=ORIENTED_EDGE('',*,*,#433,.T.);
#607=ORIENTED_EDGE('',*,*,#434,.T.);
#608=ORIENTED_EDGE('',*,*,#435,.T.);
#609=ORIENTED_EDGE('',*,*,#436,.T.);
#610=ORIENTED_EDGE('',*,*,#434,.F.);
#611=ORIENTED_EDGE('',*,*,#437,.F.);
#612=ORIENTED_EDGE('',*,*,#438,.T.);
#613=ORIENTED_EDGE('',*,*,#435,.F.);
#614=ORIENTED_EDGE('',*,*,#436,.F.);
#615=ORIENTED_EDGE('',*,*,#438,.F.);
#616=ORIENTED_EDGE('',*,*,#433,.F.);
#617=ORIENTED_EDGE('',*,*,#439,.T.);
#618=ORIENTED_EDGE('',*,*,#440,.T.);
#619=ORIENTED_EDGE('',*,*,#441,.T.);
#620=ORIENTED_EDGE('',*,*,#437,.T.);
#621=ORIENTED_EDGE('',*,*,#441,.F.);
#622=ORIENTED_EDGE('',*,*,#440,.F.);
#623=ORIENTED_EDGE('',*,*,#442,.T.);
#624=ORIENTED_EDGE('',*,*,#442,.F.);
#625=ORIENTED_EDGE('',*,*,#443,.T.);
#626=ORIENTED_EDGE('',*,*,#439,.F.);
#627=ORIENTED_EDGE('',*,*,#443,.F.);
#628=CYLINDRICAL_SURFACE('',#696,15.);
#629=CYLINDRICAL_SURFACE('',#699,14.);
#630=CYLINDRICAL_SURFACE('',#703,6.);
#631=CYLINDRICAL_SURFACE('',#707,14.);
#632=CYLINDRICAL_SURFACE('',#711,6.);
#633=CYLINDRICAL_SURFACE('',#715,14.);
#634=CYLINDRICAL_SURFACE('',#719,6.);
#635=CYLINDRICAL_SURFACE('',#724,14.);
#636=CYLINDRICAL_SURFACE('',#728,6.);
#637=CYLINDRICAL_SURFACE('',#731,14.);
#638=CYLINDRICAL_SURFACE('',#735,6.);
#639=CYLINDRICAL_SURFACE('',#749,5.);
#640=CYLINDRICAL_SURFACE('',#751,2.);
#641=CYLINDRICAL_SURFACE('',#753,5.);
#642=CYLINDRICAL_SURFACE('',#760,17.5);
#643=CYLINDRICAL_SURFACE('',#769,15.);
#644=ADVANCED_FACE('',(#54),#628,.T.);
#645=ADVANCED_FACE('',(#55),#629,.F.);
#646=ADVANCED_FACE('',(#56),#35,.F.);
#647=ADVANCED_FACE('',(#57),#630,.T.);
#648=ADVANCED_FACE('',(#58),#36,.F.);
#649=ADVANCED_FACE('',(#59),#631,.F.);
#650=ADVANCED_FACE('',(#60),#37,.F.);
#651=ADVANCED_FACE('',(#61),#632,.T.);
#652=ADVANCED_FACE('',(#62),#38,.F.);
#653=ADVANCED_FACE('',(#63),#633,.F.);
#654=ADVANCED_FACE('',(#64),#39,.F.);
#655=ADVANCED_FACE('',(#65),#634,.T.);
#656=ADVANCED_FACE('',(#66),#40,.F.);
#657=ADVANCED_FACE('',(#67),#41,.F.);
#658=ADVANCED_FACE('',(#68),#635,.F.);
#659=ADVANCED_FACE('',(#69),#42,.F.);
#660=ADVANCED_FACE('',(#70),#636,.T.);
#661=ADVANCED_FACE('',(#71),#637,.F.);
#662=ADVANCED_FACE('',(#72),#43,.F.);
#663=ADVANCED_FACE('',(#73),#638,.T.);
#664=ADVANCED_FACE('',(#74),#44,.F.);
#665=ADVANCED_FACE('',(#75),#45,.F.);
#666=ADVANCED_FACE('',(#76),#46,.F.);
#667=ADVANCED_FACE('',(#77),#47,.F.);
#668=ADVANCED_FACE('',(#78,#19),#48,.F.);
#669=ADVANCED_FACE('',(#79,#20,#21,#22,#23,#24,#25),#49,.F.);
#670=ADVANCED_FACE('',(#80,#26,#27,#28,#29,#30,#31),#50,.T.);
#671=ADVANCED_FACE('',(#81),#639,.T.);
#672=ADVANCED_FACE('',(#82),#640,.F.);
#673=ADVANCED_FACE('',(#83),#641,.T.);
#674=ADVANCED_FACE('',(#84,#32),#51,.T.);
#675=ADVANCED_FACE('',(#85),#13,.T.);
#676=ADVANCED_FACE('',(#86),#642,.T.);
#677=ADVANCED_FACE('',(#87,#33),#52,.F.);
#678=ADVANCED_FACE('',(#88),#14,.T.);
#679=ADVANCED_FACE('',(#89,#34),#53,.T.);
#680=ADVANCED_FACE('',(#90),#643,.F.);
#681=CLOSED_SHELL('',(#644,#645,#646,#647,#648,#649,#650,#651,#652,#653,
#654,#655,#656,#657,#658,#659,#660,#661,#662,#663,#664,#665,#666,#667,#668,
#669,#670,#671,#672,#673,#674));
#682=CLOSED_SHELL('',(#675,#676,#677,#678,#679,#680));
#683=DERIVED_UNIT_ELEMENT(#685,1.);
#684=DERIVED_UNIT_ELEMENT(#1171,-3.);
#685=(
MASS_UNIT()
NAMED_UNIT(*)
SI_UNIT(.KILO.,.GRAM.)
);
#686=DERIVED_UNIT((#683,#684));
#687=MEASURE_REPRESENTATION_ITEM('density measure',
POSITIVE_RATIO_MEASURE(7850.),#686);
#688=PROPERTY_DEFINITION_REPRESENTATION(#693,#690);
#689=PROPERTY_DEFINITION_REPRESENTATION(#694,#691);
#690=REPRESENTATION('material name',(#692),#1168);
#691=REPRESENTATION('density',(#687),#1168);
#692=DESCRIPTIVE_REPRESENTATION_ITEM('Steel','Steel');
#693=PROPERTY_DEFINITION('material property','material name',#1178);
#694=PROPERTY_DEFINITION('material property','density of part',#1178);
#695=AXIS2_PLACEMENT_3D('',#975,#770,#771);
#696=AXIS2_PLACEMENT_3D('',#976,#772,#773);
#697=AXIS2_PLACEMENT_3D('',#978,#774,#775);
#698=AXIS2_PLACEMENT_3D('',#981,#777,#778);
#699=AXIS2_PLACEMENT_3D('',#982,#779,#780);
#700=AXIS2_PLACEMENT_3D('',#985,#781,#782);
#701=AXIS2_PLACEMENT_3D('',#989,#784,#785);
#702=AXIS2_PLACEMENT_3D('',#991,#787,#788);
#703=AXIS2_PLACEMENT_3D('',#997,#792,#793);
#704=AXIS2_PLACEMENT_3D('',#999,#794,#795);
#705=AXIS2_PLACEMENT_3D('',#1002,#797,#798);
#706=AXIS2_PLACEMENT_3D('',#1003,#799,#800);
#707=AXIS2_PLACEMENT_3D('',#1006,#803,#804);
#708=AXIS2_PLACEMENT_3D('',#1009,#805,#806);
#709=AXIS2_PLACEMENT_3D('',#1013,#808,#809);
#710=AXIS2_PLACEMENT_3D('',#1015,#811,#812);
#711=AXIS2_PLACEMENT_3D('',#1021,#816,#817);
#712=AXIS2_PLACEMENT_3D('',#1023,#818,#819);
#713=AXIS2_PLACEMENT_3D('',#1026,#821,#822);
#714=AXIS2_PLACEMENT_3D('',#1027,#823,#824);
#715=AXIS2_PLACEMENT_3D('',#1030,#827,#828);
#716=AXIS2_PLACEMENT_3D('',#1033,#829,#830);
#717=AXIS2_PLACEMENT_3D('',#1037,#832,#833);
#718=AXIS2_PLACEMENT_3D('',#1039,#835,#836);
#719=AXIS2_PLACEMENT_3D('',#1045,#840,#841);
#720=AXIS2_PLACEMENT_3D('',#1047,#842,#843);
#721=AXIS2_PLACEMENT_3D('',#1050,#845,#846);
#722=AXIS2_PLACEMENT_3D('',#1051,#847,#848);
#723=AXIS2_PLACEMENT_3D('',#1054,#851,#852);
#724=AXIS2_PLACEMENT_3D('',#1063,#857,#858);
#725=AXIS2_PLACEMENT_3D('',#1065,#859,#860);
#726=AXIS2_PLACEMENT_3D('',#1068,#862,#863);
#727=AXIS2_PLACEMENT_3D('',#1069,#864,#865);
#728=AXIS2_PLACEMENT_3D('',#1075,#869,#870);
#729=AXIS2_PLACEMENT_3D('',#1076,#871,#872);
#730=AXIS2_PLACEMENT_3D('',#1077,#873,#874);
#731=AXIS2_PLACEMENT_3D('',#1078,#875,#876);
#732=AXIS2_PLACEMENT_3D('',#1081,#877,#878);
#733=AXIS2_PLACEMENT_3D('',#1085,#880,#881);
#734=AXIS2_PLACEMENT_3D('',#1087,#883,#884);
#735=AXIS2_PLACEMENT_3D('',#1093,#888,#889);
#736=AXIS2_PLACEMENT_3D('',#1095,#890,#891);
#737=AXIS2_PLACEMENT_3D('',#1098,#893,#894);
#738=AXIS2_PLACEMENT_3D('',#1099,#895,#896);
#739=AXIS2_PLACEMENT_3D('',#1102,#899,#900);
#740=AXIS2_PLACEMENT_3D('',#1111,#905,#906);
#741=AXIS2_PLACEMENT_3D('',#1117,#910,#911);
#742=AXIS2_PLACEMENT_3D('',#1123,#915,#916);
#743=AXIS2_PLACEMENT_3D('',#1125,#917,#918);
#744=AXIS2_PLACEMENT_3D('',#1126,#919,#920);
#745=AXIS2_PLACEMENT_3D('',#1127,#921,#922);
#746=AXIS2_PLACEMENT_3D('',#1129,#923,#924);
#747=AXIS2_PLACEMENT_3D('',#1130,#925,#926);
#748=AXIS2_PLACEMENT_3D('',#1132,#927,#928);
#749=AXIS2_PLACEMENT_3D('',#1133,#929,#930);
#750=AXIS2_PLACEMENT_3D('',#1135,#931,#932);
#751=AXIS2_PLACEMENT_3D('',#1137,#934,#935);
#752=AXIS2_PLACEMENT_3D('',#1138,#936,#937);
#753=AXIS2_PLACEMENT_3D('',#1139,#938,#939);
#754=AXIS2_PLACEMENT_3D('',#1141,#941,#942);
#755=AXIS2_PLACEMENT_3D('',#1142,#943,#944);
#756=AXIS2_PLACEMENT_3D('',#1144,#945,#946);
#757=AXIS2_PLACEMENT_3D('',#1146,#947,#948);
#758=AXIS2_PLACEMENT_3D('',#1148,#949,#950);
#759=AXIS2_PLACEMENT_3D('',#1149,#951,#952);
#760=AXIS2_PLACEMENT_3D('',#1150,#953,#954);
#761=AXIS2_PLACEMENT_3D('',#1152,#955,#956);
#762=AXIS2_PLACEMENT_3D('',#1154,#958,#959);
#763=AXIS2_PLACEMENT_3D('',#1156,#960,#961);
#764=AXIS2_PLACEMENT_3D('',#1157,#962,#963);
#765=AXIS2_PLACEMENT_3D('',#1159,#964,#965);
#766=AXIS2_PLACEMENT_3D('',#1160,#966,#967);
#767=AXIS2_PLACEMENT_3D('',#1161,#968,#969);
#768=AXIS2_PLACEMENT_3D('',#1163,#970,#971);
#769=AXIS2_PLACEMENT_3D('',#1164,#972,#973);
#770=DIRECTION('axis',(0.,0.,1.));
#771=DIRECTION('refdir',(1.,0.,0.));
#772=DIRECTION('center_axis',(0.,0.,-1.));
#773=DIRECTION('ref_axis',(-1.,0.,0.));
#774=DIRECTION('center_axis',(0.,0.,-1.));
#775=DIRECTION('ref_axis',(1.,0.,0.));
#776=DIRECTION('',(0.,0.,-1.));
#777=DIRECTION('center_axis',(0.,0.,1.));
#778=DIRECTION('ref_axis',(1.,0.,0.));
#779=DIRECTION('center_axis',(0.,0.,-1.));
#780=DIRECTION('ref_axis',(-1.,0.,0.));
#781=DIRECTION('center_axis',(0.,0.,-1.));
#782=DIRECTION('ref_axis',(-1.,0.,0.));
#783=DIRECTION('',(0.,0.,-1.));
#784=DIRECTION('center_axis',(0.,0.,1.));
#785=DIRECTION('ref_axis',(-1.,0.,0.));
#786=DIRECTION('',(0.,0.,-1.));
#787=DIRECTION('center_axis',(0.933580426497202,0.3583679495453,0.));
#788=DIRECTION('ref_axis',(0.3583679495453,-0.933580426497202,0.));
#789=DIRECTION('',(0.3583679495453,-0.933580426497202,0.));
#790=DIRECTION('',(0.,0.,-1.));
#791=DIRECTION('',(-0.3583679495453,0.933580426497202,0.));
#792=DIRECTION('center_axis',(0.,0.,-1.));
#793=DIRECTION('ref_axis',(-1.,0.,0.));
#794=DIRECTION('center_axis',(0.,0.,1.));
#795=DIRECTION('ref_axis',(-1.,0.,0.));
#796=DIRECTION('',(0.,0.,-1.));
#797=DIRECTION('center_axis',(0.,0.,-1.));
#798=DIRECTION('ref_axis',(-1.,0.,0.));
#799=DIRECTION('center_axis',(-0.933580426497202,0.358367949545301,0.));
#800=DIRECTION('ref_axis',(0.358367949545301,0.933580426497202,0.));
#801=DIRECTION('',(0.358367949545301,0.933580426497202,0.));
#802=DIRECTION('',(-0.358367949545301,-0.933580426497202,0.));
#803=DIRECTION('center_axis',(0.,0.,-1.));
#804=DIRECTION('ref_axis',(0.951056516295154,-0.309016994374948,0.));
#805=DIRECTION('center_axis',(0.,0.,-1.));
#806=DIRECTION('ref_axis',(-1.,0.,0.));
#807=DIRECTION('',(0.,0.,-1.));
#808=DIRECTION('center_axis',(0.,0.,1.));
#809=DIRECTION('ref_axis',(-1.,0.,0.));
#810=DIRECTION('',(0.,0.,-1.));
#811=DIRECTION('center_axis',(-0.0523359562429435,0.998629534754574,0.));
#812=DIRECTION('ref_axis',(0.998629534754574,0.0523359562429435,0.));
#813=DIRECTION('',(0.998629534754574,0.0523359562429435,0.));
#814=DIRECTION('',(0.,0.,-1.));
#815=DIRECTION('',(-0.998629534754574,-0.0523359562429435,0.));
#816=DIRECTION('center_axis',(0.,0.,-1.));
#817=DIRECTION('ref_axis',(0.951056516295154,-0.309016994374948,0.));
#818=DIRECTION('center_axis',(0.,0.,1.));
#819=DIRECTION('ref_axis',(-1.,0.,0.));
#820=DIRECTION('',(0.,0.,-1.));
#821=DIRECTION('center_axis',(0.,0.,-1.));
#822=DIRECTION('ref_axis',(-1.,0.,0.));
#823=DIRECTION('center_axis',(-0.629320391049838,-0.777145961456971,0.));
#824=DIRECTION('ref_axis',(-0.777145961456971,0.629320391049838,0.));
#825=DIRECTION('',(-0.777145961456971,0.629320391049838,0.));
#826=DIRECTION('',(0.777145961456971,-0.629320391049838,0.));
#827=DIRECTION('center_axis',(0.,0.,-1.));
#828=DIRECTION('ref_axis',(-1.,0.,0.));
#829=DIRECTION('center_axis',(0.,0.,-1.));
#830=DIRECTION('ref_axis',(-1.,0.,0.));
#831=DIRECTION('',(0.,0.,-1.));
#832=DIRECTION('center_axis',(0.,0.,1.));
#833=DIRECTION('ref_axis',(-1.,0.,0.));
#834=DIRECTION('',(0.,0.,-1.));
#835=DIRECTION('center_axis',(0.629320391049837,-0.777145961456971,0.));
#836=DIRECTION('ref_axis',(-0.777145961456971,-0.629320391049837,0.));
#837=DIRECTION('',(-0.777145961456971,-0.629320391049837,0.));
#838=DIRECTION('',(0.,0.,-1.));
#839=DIRECTION('',(0.777145961456971,0.629320391049837,0.));
#840=DIRECTION('center_axis',(0.,0.,-1.));
#841=DIRECTION('ref_axis',(-1.,0.,0.));
#842=DIRECTION('center_axis',(0.,0.,1.));
#843=DIRECTION('ref_axis',(-1.,0.,0.));
#844=DIRECTION('',(0.,0.,-1.));
#845=DIRECTION('center_axis',(0.,0.,-1.));
#846=DIRECTION('ref_axis',(-1.,0.,0.));
#847=DIRECTION('center_axis',(0.0523359562429438,0.998629534754574,0.));
#848=DIRECTION('ref_axis',(0.998629534754574,-0.0523359562429438,0.));
#849=DIRECTION('',(0.998629534754574,-0.0523359562429438,0.));
#850=DIRECTION('',(-0.998629534754574,0.0523359562429438,0.));
#851=DIRECTION('center_axis',(0.544639035015027,-0.838670567945424,0.));
#852=DIRECTION('ref_axis',(-0.838670567945424,-0.544639035015027,0.));
#853=DIRECTION('',(-0.838670567945424,-0.544639035015027,0.));
#854=DIRECTION('',(0.,0.,-1.));
#855=DIRECTION('',(0.838670567945424,0.544639035015027,0.));
#856=DIRECTION('',(0.,0.,-1.));
#857=DIRECTION('center_axis',(0.,0.,-1.));
#858=DIRECTION('ref_axis',(-1.,0.,0.));
#859=DIRECTION('center_axis',(0.,0.,-1.));
#860=DIRECTION('ref_axis',(-1.,0.,0.));
#861=DIRECTION('',(0.,0.,-1.));
#862=DIRECTION('center_axis',(0.,0.,1.));
#863=DIRECTION('ref_axis',(-1.,0.,0.));
#864=DIRECTION('center_axis',(-0.965925826289068,0.258819045102521,0.));
#865=DIRECTION('ref_axis',(0.258819045102521,0.965925826289068,0.));
#866=DIRECTION('',(0.258819045102521,0.965925826289068,0.));
#867=DIRECTION('',(0.,0.,-1.));
#868=DIRECTION('',(-0.258819045102521,-0.965925826289068,0.));
#869=DIRECTION('center_axis',(0.,0.,-1.));
#870=DIRECTION('ref_axis',(-1.,0.,0.));
#871=DIRECTION('center_axis',(0.,0.,1.));
#872=DIRECTION('ref_axis',(-1.,0.,0.));
#873=DIRECTION('center_axis',(0.,0.,-1.));
#874=DIRECTION('ref_axis',(-1.,0.,0.));
#875=DIRECTION('center_axis',(0.,0.,-1.));
#876=DIRECTION('ref_axis',(-1.,0.,0.));
#877=DIRECTION('center_axis',(0.,0.,-1.));
#878=DIRECTION('ref_axis',(-1.,0.,0.));
#879=DIRECTION('',(0.,0.,-1.));
#880=DIRECTION('center_axis',(0.,0.,1.));
#881=DIRECTION('ref_axis',(-1.,0.,0.));
#882=DIRECTION('',(0.,0.,-1.));
#883=DIRECTION('center_axis',(-0.544639035015027,-0.838670567945424,0.));
#884=DIRECTION('ref_axis',(-0.838670567945424,0.544639035015027,0.));
#885=DIRECTION('',(-0.838670567945424,0.544639035015027,0.));
#886=DIRECTION('',(0.,0.,-1.));
#887=DIRECTION('',(0.838670567945424,-0.544639035015027,0.));
#888=DIRECTION('center_axis',(0.,0.,-1.));
#889=DIRECTION('ref_axis',(-1.,0.,0.));
#890=DIRECTION('center_axis',(0.,0.,1.));
#891=DIRECTION('ref_axis',(-1.,0.,0.));
#892=DIRECTION('',(0.,0.,-1.));
#893=DIRECTION('center_axis',(0.,0.,-1.));
#894=DIRECTION('ref_axis',(-1.,0.,0.));
#895=DIRECTION('center_axis',(0.965925826289068,0.258819045102521,0.));
#896=DIRECTION('ref_axis',(0.258819045102521,-0.965925826289068,0.));
#897=DIRECTION('',(0.258819045102521,-0.965925826289068,0.));
#898=DIRECTION('',(-0.258819045102521,0.965925826289068,0.));
#899=DIRECTION('center_axis',(0.,1.,0.));
#900=DIRECTION('ref_axis',(1.,0.,0.));
#901=DIRECTION('',(1.,0.,0.));
#902=DIRECTION('',(0.,0.,-1.));
#903=DIRECTION('',(-1.,0.,0.));
#904=DIRECTION('',(0.,0.,-1.));
#905=DIRECTION('center_axis',(-1.,0.,0.));
#906=DIRECTION('ref_axis',(0.,1.,0.));
#907=DIRECTION('',(0.,1.,0.));
#908=DIRECTION('',(0.,0.,1.));
#909=DIRECTION('',(0.,-1.,0.));
#910=DIRECTION('center_axis',(1.,0.,0.));
#911=DIRECTION('ref_axis',(0.,-1.,0.));
#912=DIRECTION('',(0.,-1.,0.));
#913=DIRECTION('',(0.,1.,0.));
#914=DIRECTION('',(0.,0.,-1.));
#915=DIRECTION('center_axis',(0.,0.,1.));
#916=DIRECTION('ref_axis',(1.,0.,0.));
#917=DIRECTION('center_axis',(0.,0.,-1.));
#918=DIRECTION('ref_axis',(1.,0.,0.));
#919=DIRECTION('center_axis',(0.,0.,1.));
#920=DIRECTION('ref_axis',(1.,0.,0.));
#921=DIRECTION('center_axis',(0.,0.,1.));
#922=DIRECTION('ref_axis',(1.,0.,0.));
#923=DIRECTION('center_axis',(0.,0.,-1.));
#924=DIRECTION('ref_axis',(1.,0.,0.));
#925=DIRECTION('center_axis',(0.,0.,1.));
#926=DIRECTION('ref_axis',(1.,0.,0.));
#927=DIRECTION('center_axis',(0.,0.,1.));
#928=DIRECTION('ref_axis',(1.,0.,0.));
#929=DIRECTION('center_axis',(0.,0.,1.));
#930=DIRECTION('ref_axis',(1.,0.,0.));
#931=DIRECTION('center_axis',(0.,0.,1.));
#932=DIRECTION('ref_axis',(1.,0.,0.));
#933=DIRECTION('',(0.,0.,-1.));
#934=DIRECTION('center_axis',(0.,0.,1.));
#935=DIRECTION('ref_axis',(3.84746285403769E-9,-1.,0.));
#936=DIRECTION('center_axis',(0.,0.,-1.));
#937=DIRECTION('ref_axis',(1.,0.,0.));
#938=DIRECTION('center_axis',(0.,0.,1.));
#939=DIRECTION('ref_axis',(1.,0.,0.));
#940=DIRECTION('',(0.,0.,-1.));
#941=DIRECTION('center_axis',(0.,0.,1.));
#942=DIRECTION('ref_axis',(1.,0.,0.));
#943=DIRECTION('center_axis',(0.,0.,-1.));
#944=DIRECTION('ref_axis',(-1.,0.,0.));
#945=DIRECTION('center_axis',(0.,0.,1.));
#946=DIRECTION('ref_axis',(1.,0.,0.));
#947=DIRECTION('center_axis',(-1.22464679914735E-16,-1.,0.));
#948=DIRECTION('ref_axis',(1.,-1.22464679914735E-16,0.));
#949=DIRECTION('center_axis',(0.,0.,-1.));
#950=DIRECTION('ref_axis',(1.,0.,0.));
#951=DIRECTION('center_axis',(0.,0.,-1.));
#952=DIRECTION('ref_axis',(1.,0.,0.));
#953=DIRECTION('center_axis',(0.,0.,1.));
#954=DIRECTION('ref_axis',(1.,0.,0.));
#955=DIRECTION('center_axis',(0.,0.,1.));
#956=DIRECTION('ref_axis',(1.,0.,0.));
#957=DIRECTION('',(0.,0.,-1.));
#958=DIRECTION('center_axis',(0.,0.,1.));
#959=DIRECTION('ref_axis',(1.,0.,0.));
#960=DIRECTION('center_axis',(0.,0.,1.));
#961=DIRECTION('ref_axis',(1.,0.,0.));
#962=DIRECTION('center_axis',(0.,0.,1.));
#963=DIRECTION('ref_axis',(1.,0.,0.));
#964=DIRECTION('center_axis',(0.,0.,-1.));
#965=DIRECTION('ref_axis',(1.,0.,0.));
#966=DIRECTION('center_axis',(1.22464679914735E-16,-1.,0.));
#967=DIRECTION('ref_axis',(-1.,-1.22464679914735E-16,0.));
#968=DIRECTION('center_axis',(0.,0.,1.));
#969=DIRECTION('ref_axis',(1.,0.,0.));
#970=DIRECTION('center_axis',(0.,0.,-1.));
#971=DIRECTION('ref_axis',(1.,0.,0.));
#972=DIRECTION('center_axis',(0.,0.,1.));
#973=DIRECTION('ref_axis',(1.,0.,0.));
#974=DIRECTION('',(0.,0.,-1.));
#975=CARTESIAN_POINT('',(0.,0.,0.));
#976=CARTESIAN_POINT('Origin',(0.,0.,4.));
#977=CARTESIAN_POINT('',(15.,-1.83697019872103E-15,2.));
#978=CARTESIAN_POINT('Origin',(0.,0.,2.));
#979=CARTESIAN_POINT('',(15.,-1.83697019872103E-15,-2.));
#980=CARTESIAN_POINT('',(15.,-1.83697019872103E-15,4.));
#981=CARTESIAN_POINT('Origin',(0.,0.,-2.));
#982=CARTESIAN_POINT('Origin',(0.,0.,2.));
#983=CARTESIAN_POINT('',(5.0171512936342,-13.0701259709608,2.));
#984=CARTESIAN_POINT('',(-5.01715129363421,-13.0701259709608,2.));
#985=CARTESIAN_POINT('Origin',(0.,0.,2.));
#986=CARTESIAN_POINT('',(5.0171512936342,-13.0701259709608,-2.));
#987=CARTESIAN_POINT('',(5.0171512936342,-13.0701259709608,2.));
#988=CARTESIAN_POINT('',(-5.01715129363421,-13.0701259709608,-2.));
#989=CARTESIAN_POINT('Origin',(0.,0.,-2.));
#990=CARTESIAN_POINT('',(-5.01715129363421,-13.0701259709608,2.));
#991=CARTESIAN_POINT('Origin',(2.1502076972718,-5.60148255898321,2.));
#992=CARTESIAN_POINT('',(2.1502076972718,-5.60148255898321,2.));
#993=CARTESIAN_POINT('',(1.0751038486359,-2.80074127949161,2.));
#994=CARTESIAN_POINT('',(2.1502076972718,-5.60148255898321,-2.));
#995=CARTESIAN_POINT('',(2.1502076972718,-5.60148255898321,2.));
#996=CARTESIAN_POINT('',(1.0751038486359,-2.80074127949161,-2.));
#997=CARTESIAN_POINT('Origin',(0.,0.,2.));
#998=CARTESIAN_POINT('',(-2.1502076972718,-5.60148255898321,2.));
#999=CARTESIAN_POINT('Origin',(0.,0.,2.));
#1000=CARTESIAN_POINT('',(-2.1502076972718,-5.60148255898321,-2.));
#1001=CARTESIAN_POINT('',(-2.1502076972718,-5.60148255898321,2.));
#1002=CARTESIAN_POINT('Origin',(0.,0.,-2.));
#1003=CARTESIAN_POINT('Origin',(-5.01715129363421,-13.0701259709608,2.));
#1004=CARTESIAN_POINT('',(-2.5085756468171,-6.53506298548041,2.));
#1005=CARTESIAN_POINT('',(-2.5085756468171,-6.53506298548041,-2.));
#1006=CARTESIAN_POINT('Origin',(0.,0.,2.));
#1007=CARTESIAN_POINT('',(13.980813486564,0.73270338740121,2.));
#1008=CARTESIAN_POINT('',(10.8800434603976,-8.81048547469773,2.));
#1009=CARTESIAN_POINT('Origin',(0.,0.,2.));
#1010=CARTESIAN_POINT('',(13.980813486564,0.73270338740121,-2.));
#1011=CARTESIAN_POINT('',(13.980813486564,0.73270338740121,2.));
#1012=CARTESIAN_POINT('',(10.8800434603976,-8.81048547469773,-2.));
#1013=CARTESIAN_POINT('Origin',(0.,0.,-2.));
#1014=CARTESIAN_POINT('',(10.8800434603976,-8.81048547469773,2.));
#1015=CARTESIAN_POINT('Origin',(5.99177720852744,0.314015737457661,2.));
#1016=CARTESIAN_POINT('',(5.99177720852744,0.314015737457661,2.));
#1017=CARTESIAN_POINT('',(2.99588860426372,0.15700786872883,2.));
#1018=CARTESIAN_POINT('',(5.99177720852744,0.314015737457661,-2.));
#1019=CARTESIAN_POINT('',(5.99177720852744,0.314015737457661,2.));
#1020=CARTESIAN_POINT('',(2.99588860426372,0.15700786872883,-2.));
#1021=CARTESIAN_POINT('Origin',(0.,0.,2.));
#1022=CARTESIAN_POINT('',(4.66287576874183,-3.77592234629903,2.));
#1023=CARTESIAN_POINT('Origin',(0.,0.,2.));
#1024=CARTESIAN_POINT('',(4.66287576874183,-3.77592234629903,-2.));
#1025=CARTESIAN_POINT('',(4.66287576874183,-3.77592234629903,2.));
#1026=CARTESIAN_POINT('Origin',(0.,0.,-2.));
#1027=CARTESIAN_POINT('Origin',(10.8800434603976,-8.81048547469773,2.));
#1028=CARTESIAN_POINT('',(5.4400217301988,-4.40524273734887,2.));
#1029=CARTESIAN_POINT('',(5.4400217301988,-4.40524273734887,-2.));
#1030=CARTESIAN_POINT('Origin',(0.,0.,2.));
#1031=CARTESIAN_POINT('',(-10.8800434603976,-8.81048547469772,2.));
#1032=CARTESIAN_POINT('',(-13.980813486564,0.732703387401214,2.));
#1033=CARTESIAN_POINT('Origin',(0.,0.,2.));
#1034=CARTESIAN_POINT('',(-10.8800434603976,-8.81048547469772,-2.));
#1035=CARTESIAN_POINT('',(-10.8800434603976,-8.81048547469772,2.));
#1036=CARTESIAN_POINT('',(-13.980813486564,0.732703387401214,-2.));
#1037=CARTESIAN_POINT('Origin',(0.,0.,-2.));
#1038=CARTESIAN_POINT('',(-13.980813486564,0.732703387401214,2.));
#1039=CARTESIAN_POINT('Origin',(-4.66287576874183,-3.77592234629902,2.));
#1040=CARTESIAN_POINT('',(-4.66287576874183,-3.77592234629902,2.));
#1041=CARTESIAN_POINT('',(-2.33143788437091,-1.88796117314951,2.));
#1042=CARTESIAN_POINT('',(-4.66287576874183,-3.77592234629902,-2.));
#1043=CARTESIAN_POINT('',(-4.66287576874183,-3.77592234629902,2.));
#1044=CARTESIAN_POINT('',(-2.33143788437091,-1.88796117314951,-2.));
#1045=CARTESIAN_POINT('Origin',(0.,0.,2.));
#1046=CARTESIAN_POINT('',(-5.99177720852744,0.314015737457663,2.));
#1047=CARTESIAN_POINT('Origin',(0.,0.,2.));
#1048=CARTESIAN_POINT('',(-5.99177720852744,0.314015737457663,-2.));
#1049=CARTESIAN_POINT('',(-5.99177720852744,0.314015737457663,2.));
#1050=CARTESIAN_POINT('Origin',(0.,0.,-2.));
#1051=CARTESIAN_POINT('Origin',(-13.980813486564,0.732703387401214,2.));
#1052=CARTESIAN_POINT('',(-6.99040674328202,0.366351693700607,2.));
#1053=CARTESIAN_POINT('',(-6.99040674328202,0.366351693700607,-2.));
#1054=CARTESIAN_POINT('Origin',(11.7413879512359,7.62494649021038,2.));
#1055=CARTESIAN_POINT('',(11.7413879512359,7.62494649021038,2.));
#1056=CARTESIAN_POINT('',(5.03202340767255,3.26783421009016,2.));
#1057=CARTESIAN_POINT('',(5.87069397561797,3.81247324510519,2.));
#1058=CARTESIAN_POINT('',(11.7413879512359,7.62494649021038,-2.));
#1059=CARTESIAN_POINT('',(11.7413879512359,7.62494649021038,2.));
#1060=CARTESIAN_POINT('',(5.03202340767255,3.26783421009016,-2.));
#1061=CARTESIAN_POINT('',(5.87069397561797,3.81247324510519,-2.));
#1062=CARTESIAN_POINT('',(5.03202340767255,3.26783421009016,2.));
#1063=CARTESIAN_POINT('Origin',(0.,0.,2.));
#1064=CARTESIAN_POINT('',(3.62346663143529,13.522961568047,2.));
#1065=CARTESIAN_POINT('Origin',(0.,0.,2.));
#1066=CARTESIAN_POINT('',(3.62346663143529,13.522961568047,-2.));
#1067=CARTESIAN_POINT('',(3.62346663143529,13.522961568047,2.));
#1068=CARTESIAN_POINT('Origin',(0.,0.,-2.));
#1069=CARTESIAN_POINT('Origin',(1.55291427061512,5.79555495773441,2.));
#1070=CARTESIAN_POINT('',(1.55291427061512,5.79555495773441,2.));
#1071=CARTESIAN_POINT('',(0.776457135307563,2.89777747886721,2.));
#1072=CARTESIAN_POINT('',(1.55291427061512,5.79555495773441,-2.));
#1073=CARTESIAN_POINT('',(1.55291427061512,5.79555495773441,2.));
#1074=CARTESIAN_POINT('',(0.776457135307563,2.89777747886721,-2.));
#1075=CARTESIAN_POINT('Origin',(0.,0.,2.));
#1076=CARTESIAN_POINT('Origin',(0.,0.,2.));
#1077=CARTESIAN_POINT('Origin',(0.,0.,-2.));
#1078=CARTESIAN_POINT('Origin',(0.,0.,2.));
#1079=CARTESIAN_POINT('',(-11.7413879512359,7.62494649021038,2.));
#1080=CARTESIAN_POINT('',(-3.62346663143529,13.522961568047,2.));
#1081=CARTESIAN_POINT('Origin',(0.,0.,2.));
#1082=CARTESIAN_POINT('',(-11.7413879512359,7.62494649021038,-2.));
#1083=CARTESIAN_POINT('',(-11.7413879512359,7.62494649021038,2.));
#1084=CARTESIAN_POINT('',(-3.62346663143529,13.522961568047,-2.));
#1085=CARTESIAN_POINT('Origin',(0.,0.,-2.));
#1086=CARTESIAN_POINT('',(-3.62346663143529,13.522961568047,2.));
#1087=CARTESIAN_POINT('Origin',(-5.03202340767255,3.26783421009016,2.));
#1088=CARTESIAN_POINT('',(-5.03202340767255,3.26783421009016,2.));
#1089=CARTESIAN_POINT('',(-2.51601170383627,1.63391710504508,2.));
#1090=CARTESIAN_POINT('',(-5.03202340767255,3.26783421009016,-2.));
#1091=CARTESIAN_POINT('',(-5.03202340767255,3.26783421009016,2.));
#1092=CARTESIAN_POINT('',(-2.51601170383627,1.63391710504508,-2.));
#1093=CARTESIAN_POINT('Origin',(0.,0.,2.));
#1094=CARTESIAN_POINT('',(-1.55291427061512,5.79555495773441,2.));
#1095=CARTESIAN_POINT('Origin',(0.,0.,2.));
#1096=CARTESIAN_POINT('',(-1.55291427061512,5.79555495773441,-2.));
#1097=CARTESIAN_POINT('',(-1.55291427061512,5.79555495773441,2.));
#1098=CARTESIAN_POINT('Origin',(0.,0.,-2.));
#1099=CARTESIAN_POINT('Origin',(-3.62346663143529,13.522961568047,2.));
#1100=CARTESIAN_POINT('',(-1.81173331571765,6.76148078402348,2.));
#1101=CARTESIAN_POINT('',(-1.81173331571765,6.76148078402348,-2.));
#1102=CARTESIAN_POINT('Origin',(-0.500000007450581,2.5,4.));
#1103=CARTESIAN_POINT('',(-0.500000007450581,2.5,4.));
#1104=CARTESIAN_POINT('',(0.499999992549419,2.5,4.));
#1105=CARTESIAN_POINT('',(-0.25000000372529,2.5,4.));
#1106=CARTESIAN_POINT('',(-0.500000007450581,2.5,-4.));
#1107=CARTESIAN_POINT('',(-0.500000007450581,2.5,4.));
#1108=CARTESIAN_POINT('',(0.499999992549419,2.5,-4.));
#1109=CARTESIAN_POINT('',(-0.25000000372529,2.5,-4.));
#1110=CARTESIAN_POINT('',(0.499999992549419,2.5,4.));
#1111=CARTESIAN_POINT('Origin',(-0.500000007450581,1.93649167117998,4.));
#1112=CARTESIAN_POINT('',(-0.500000007450581,1.93649167117998,4.));
#1113=CARTESIAN_POINT('',(-0.500000007450581,0.968245835589989,4.));
#1114=CARTESIAN_POINT('',(-0.500000007450581,1.93649167117998,-4.));
#1115=CARTESIAN_POINT('',(-0.500000007450581,1.93649167117998,0.));
#1116=CARTESIAN_POINT('',(-0.500000007450581,0.968245835589989,-4.));
#1117=CARTESIAN_POINT('Origin',(0.499999992549419,2.5,4.));
#1118=CARTESIAN_POINT('',(0.499999992549419,1.93649167502744,4.));
#1119=CARTESIAN_POINT('',(0.499999992549419,1.25,4.));
#1120=CARTESIAN_POINT('',(0.499999992549419,1.93649167502744,-4.));
#1121=CARTESIAN_POINT('',(0.499999992549419,1.25,-4.));
#1122=CARTESIAN_POINT('',(0.499999992549419,1.93649167502744,0.));
#1123=CARTESIAN_POINT('Origin',(0.,0.,-4.));
#1124=CARTESIAN_POINT('',(-5.,-6.12323399573677E-16,-4.));
#1125=CARTESIAN_POINT('Origin',(0.,0.,-4.));
#1126=CARTESIAN_POINT('Origin',(0.,0.,-4.));
#1127=CARTESIAN_POINT('Origin',(0.,0.,-2.));
#1128=CARTESIAN_POINT('',(-5.,-6.12323399573677E-16,-2.));
#1129=CARTESIAN_POINT('Origin',(0.,0.,-2.));
#1130=CARTESIAN_POINT('Origin',(0.,0.,2.));
#1131=CARTESIAN_POINT('',(-5.,-6.12323399573677E-16,2.));
#1132=CARTESIAN_POINT('Origin',(0.,0.,2.));
#1133=CARTESIAN_POINT('Origin',(0.,0.,0.));
#1134=CARTESIAN_POINT('',(-5.,-6.12323399573677E-16,4.));
#1135=CARTESIAN_POINT('Origin',(0.,0.,4.));
#1136=CARTESIAN_POINT('',(-5.,-6.12323399573677E-16,0.));
#1137=CARTESIAN_POINT('Origin',(0.,0.,0.));
#1138=CARTESIAN_POINT('Origin',(0.,0.,4.));
#1139=CARTESIAN_POINT('Origin',(0.,0.,0.));
#1140=CARTESIAN_POINT('',(-5.,-6.12323399573677E-16,0.));
#1141=CARTESIAN_POINT('Origin',(0.,0.,4.));
#1142=CARTESIAN_POINT('Origin',(0.,0.,-3.5));
#1143=CARTESIAN_POINT('',(17.,-2.0818995585505E-15,-4.));
#1144=CARTESIAN_POINT('Origin',(0.,0.,-4.));
#1145=CARTESIAN_POINT('',(17.5,-2.14313189850787E-15,-3.5));
#1146=CARTESIAN_POINT('Origin',(17.,-2.0818995585505E-15,-3.5));
#1147=CARTESIAN_POINT('',(-17.5,2.14313189850787E-15,-3.5));
#1148=CARTESIAN_POINT('Origin',(0.,0.,-3.5));
#1149=CARTESIAN_POINT('Origin',(0.,0.,-3.5));
#1150=CARTESIAN_POINT('Origin',(0.,0.,0.));
#1151=CARTESIAN_POINT('',(-17.5,-2.14313189850787E-15,3.5));
#1152=CARTESIAN_POINT('Origin',(0.,0.,3.5));
#1153=CARTESIAN_POINT('',(-17.5,-2.14313189850787E-15,0.));
#1154=CARTESIAN_POINT('Origin',(0.,0.,-4.));
#1155=CARTESIAN_POINT('',(-15.,-1.83697019872103E-15,-4.));
#1156=CARTESIAN_POINT('Origin',(0.,0.,-4.));
#1157=CARTESIAN_POINT('Origin',(0.,0.,3.5));
#1158=CARTESIAN_POINT('',(-17.,2.0818995585505E-15,4.));
#1159=CARTESIAN_POINT('Origin',(0.,0.,4.));
#1160=CARTESIAN_POINT('Origin',(-17.,-2.0818995585505E-15,3.5));
#1161=CARTESIAN_POINT('Origin',(0.,0.,4.));
#1162=CARTESIAN_POINT('',(-15.,-1.83697019872103E-15,4.));
#1163=CARTESIAN_POINT('Origin',(0.,0.,4.));
#1164=CARTESIAN_POINT('Origin',(0.,0.,0.));
#1165=CARTESIAN_POINT('',(-15.,-1.83697019872103E-15,0.));
#1166=UNCERTAINTY_MEASURE_WITH_UNIT(LENGTH_MEASURE(0.01),#1170,
'DISTANCE_ACCURACY_VALUE',
'Maximum model space distance between geometric entities at asserted c
onnectivities');
#1167=UNCERTAINTY_MEASURE_WITH_UNIT(LENGTH_MEASURE(0.01),#1170,
'DISTANCE_ACCURACY_VALUE',
'Maximum model space distance between geometric entities at asserted c
onnectivities');
#1168=(
GEOMETRIC_REPRESENTATION_CONTEXT(3)
GLOBAL_UNCERTAINTY_ASSIGNED_CONTEXT((#1166))
GLOBAL_UNIT_ASSIGNED_CONTEXT((#1170,#1172,#1173))
REPRESENTATION_CONTEXT('','3D')
);
#1169=(
GEOMETRIC_REPRESENTATION_CONTEXT(3)
GLOBAL_UNCERTAINTY_ASSIGNED_CONTEXT((#1167))
GLOBAL_UNIT_ASSIGNED_CONTEXT((#1170,#1172,#1173))
REPRESENTATION_CONTEXT('','3D')
);
#1170=(
LENGTH_UNIT()
NAMED_UNIT(*)
SI_UNIT(.MILLI.,.METRE.)
);
#1171=(
LENGTH_UNIT()
NAMED_UNIT(*)
SI_UNIT($,.METRE.)
);
#1172=(
NAMED_UNIT(*)
PLANE_ANGLE_UNIT()
SI_UNIT($,.RADIAN.)
);
#1173=(
NAMED_UNIT(*)
SI_UNIT($,.STERADIAN.)
SOLID_ANGLE_UNIT()
);
#1174=SHAPE_DEFINITION_REPRESENTATION(#1175,#1176);
#1175=PRODUCT_DEFINITION_SHAPE('',$,#1178);
#1176=SHAPE_REPRESENTATION('',(#695),#1168);
#1177=PRODUCT_DEFINITION_CONTEXT('part definition',#1182,'design');
#1178=PRODUCT_DEFINITION('2026-07-09-22-27-13-441','wheel (~recovered)',
#1179,#1177);
#1179=PRODUCT_DEFINITION_FORMATION('',$,#1184);
#1180=PRODUCT_RELATED_PRODUCT_CATEGORY('wheel (~recovered)',
'wheel (~recovered)',(#1184));
#1181=APPLICATION_PROTOCOL_DEFINITION('international standard',
'automotive_design',2009,#1182);
#1182=APPLICATION_CONTEXT(
'Core Data for Automotive Mechanical Design Process');
#1183=PRODUCT_CONTEXT('part definition',#1182,'mechanical');
#1184=PRODUCT('2026-07-09-22-27-13-441','wheel (~recovered)',$,(#1183));
#1185=PRESENTATION_STYLE_ASSIGNMENT((#1187));
#1186=PRESENTATION_STYLE_ASSIGNMENT((#1188));
#1187=SURFACE_STYLE_USAGE(.BOTH.,#1189);
#1188=SURFACE_STYLE_USAGE(.BOTH.,#1190);
#1189=SURFACE_SIDE_STYLE('',(#1191));
#1190=SURFACE_SIDE_STYLE('',(#1192));
#1191=SURFACE_STYLE_FILL_AREA(#1193);
#1192=SURFACE_STYLE_FILL_AREA(#1194);
#1193=FILL_AREA_STYLE('Steel - Satin',(#1195));
#1194=FILL_AREA_STYLE('Stainless Steel - Satin',(#1196));
#1195=FILL_AREA_STYLE_COLOUR('Steel - Satin',#1197);
#1196=FILL_AREA_STYLE_COLOUR('Stainless Steel - Satin',#1198);
#1197=COLOUR_RGB('Steel - Satin',0.627450980392157,0.627450980392157,0.627450980392157);
#1198=COLOUR_RGB('Stainless Steel - Satin',0.796078431372549,0.796078431372549,
0.796078431372549);
ENDSEC;
END-ISO-10303-21;
